HIERARCHY
ROOT hip
{
  OFFSET 0 0 0
  CHANNELS 6 Xposition Yposition Zposition Zrotation Yrotation Xrotation
  JOINT abdomen
  {
    OFFSET 0 20.6881 -0.73152
    CHANNELS 3 Zrotation Xrotation Yrotation
    JOINT chest
    {
      OFFSET 0 11.7043 -0.48768
      CHANNELS 3 Zrotation Xrotation Yrotation
      JOINT neck
      {
        OFFSET 0 22.1894 -2.19456
        CHANNELS 3 Zrotation Xrotation Yrotation
        JOINT head
        {
          OFFSET -0.24384 7.07133 1.2192
          CHANNELS 3 Zrotation Xrotation Yrotation
          JOINT leftEye
          {
            OFFSET 4.14528 8.04674 8.04672
            CHANNELS 3 Zrotation Xrotation Yrotation
            End Site
            {
              OFFSET 1 0 0
            }
          }
          JOINT rightEye
          {
            OFFSET -3.6576 8.04674 8.04672
            CHANNELS 3 Zrotation Xrotation Yrotation
            End Site
            {
              OFFSET 1 0 0
            }
          }
        }
      }
      JOINT rCollar
      {
        OFFSET -2.68224 19.2634 -4.8768
        CHANNELS 3 Zrotation Xrotation Yrotation
        JOINT rShldr
        {
          OFFSET -8.77824 -1.95073 1.46304
          CHANNELS 3 Zrotation Xrotation Yrotation
          JOINT rForeArm
          {
            OFFSET -28.1742 -1.7115 0.48768
            CHANNELS 3 Zrotation Xrotation Yrotation
            JOINT rHand
            {
              OFFSET -22.5879 0.773209 7.07136
              CHANNELS 3 Zrotation Xrotation Yrotation
              JOINT rThumb1
              {
                OFFSET -1.2192 -0.487915 3.41376
                CHANNELS 3 Zrotation Xrotation Yrotation
                JOINT rThumb2
                {
                  OFFSET -3.37035 -0.52449 3.41376
                  CHANNELS 3 Zrotation Xrotation Yrotation
                  End Site
                  {
                    OFFSET -1.78271 -1.18214 1.43049
                  }
                }
              }
              JOINT rIndex1
              {
                OFFSET -7.75947 0.938293 5.60832
                CHANNELS 3 Zrotation Xrotation Yrotation
                JOINT rIndex2
                {
                  OFFSET -2.54057 -0.884171 1.56538
                  CHANNELS 3 Zrotation Xrotation Yrotation
                  End Site
                  {
                    OFFSET -1.62519 -0.234802 1.16502
                  }
                }
              }
              JOINT rMid1
              {
                OFFSET -8.24714 1.18213 3.41376
                CHANNELS 3 Zrotation Xrotation Yrotation
                JOINT rMid2
                {
                  OFFSET -3.10165 -0.590103 1.0647
                  CHANNELS 3 Zrotation Xrotation Yrotation
                  End Site
                  {
                    OFFSET -2.48547 -0.328903 0.83742
                  }
                }
              }
              JOINT rRing1
              {
                OFFSET -8.82822 0.546677 1.51678
                CHANNELS 3 Zrotation Xrotation Yrotation
                JOINT rRing2
                {
                  OFFSET -2.60934 -0.819778 -0.0198488
                  CHANNELS 3 Zrotation Xrotation Yrotation
                  End Site
                  {
                    OFFSET -2.33842 -0.294052 0.168128
                  }
                }
              }
              JOINT rPinky1
              {
                OFFSET -8.27202 -0.0477905 -0.4584
                CHANNELS 3 Zrotation Xrotation Yrotation
                JOINT rPinky2
                {
                  OFFSET -1.82734 -0.647385 -0.700984
                  CHANNELS 3 Zrotation Xrotation Yrotation
                  End Site
                  {
                    OFFSET -1.69225 -0.51767 -0.607171
                  }
                }
              }
            }
          }
        }
      }
      JOINT lCollar
      {
        OFFSET 2.68224 19.2634 -4.8768
        CHANNELS 3 Zrotation Xrotation Yrotation
        JOINT lShldr
        {
          OFFSET 8.77824 -1.95073 1.46304
          CHANNELS 3 Zrotation Xrotation Yrotation
          JOINT lForeArm
          {
            OFFSET 28.1742 -1.7115 0.48768
            CHANNELS 3 Zrotation Xrotation Yrotation
            JOINT lHand
            {
              OFFSET 22.5879 0.773209 7.07136
              CHANNELS 3 Zrotation Xrotation Yrotation
              JOINT lThumb1
              {
                OFFSET 1.2192 -0.487915 3.41376
                CHANNELS 3 Zrotation Xrotation Yrotation
                JOINT lThumb2
                {
                  OFFSET 3.37035 -0.52449 3.41376
                  CHANNELS 3 Zrotation Xrotation Yrotation
                  End Site
                  {
                    OFFSET 1.78271 -1.18214 1.43049
                  }
                }
              }
              JOINT lIndex1
              {
                OFFSET 7.75947 0.938293 5.60832
                CHANNELS 3 Zrotation Xrotation Yrotation
                JOINT lIndex2
                {
                  OFFSET 2.54057 -0.884171 1.56538
                  CHANNELS 3 Zrotation Xrotation Yrotation
                  End Site
                  {
                    OFFSET 1.62519 -0.234802 1.16502
                  }
                }
              }
              JOINT lMid1
              {
                OFFSET 8.24714 1.18213 3.41376
                CHANNELS 3 Zrotation Xrotation Yrotation
                JOINT lMid2
                {
                  OFFSET 3.10165 -0.590103 1.0647
                  CHANNELS 3 Zrotation Xrotation Yrotation
                  End Site
                  {
                    OFFSET 2.48547 -0.328903 0.83742
                  }
                }
              }
              JOINT lRing1
              {
                OFFSET 8.82822 0.546677 1.51678
                CHANNELS 3 Zrotation Xrotation Yrotation
                JOINT lRing2
                {
                  OFFSET 2.60934 -0.819778 -0.0198488
                  CHANNELS 3 Zrotation Xrotation Yrotation
                  End Site
                  {
                    OFFSET 2.33842 -0.294052 0.168128
                  }
                }
              }
              JOINT lPinky1
              {
                OFFSET 8.27202 -0.0477905 -0.4584
                CHANNELS 3 Zrotation Xrotation Yrotation
                JOINT lPinky2
                {
                  OFFSET 1.82734 -0.647385 -0.700984
                  CHANNELS 3 Zrotation Xrotation Yrotation
                  End Site
                  {
                    OFFSET 1.69225 -0.51767 -0.607171
                  }
                }
              }
            }
          }
        }
      }
    }
  }
  JOINT rButtock
  {
    OFFSET -8.77824 4.35084 1.2192
    CHANNELS 3 Zrotation Xrotation Yrotation
    JOINT rThigh
    {
      OFFSET 0 -1.70687 -2.19456
      CHANNELS 3 Zrotation Xrotation Yrotation
      JOINT rShin
      {
        OFFSET 0 -36.8199 0.73152
        CHANNELS 3 Zrotation Xrotation Yrotation
        JOINT rFoot
        {
          OFFSET 0.73152 -45.1104 -5.12064
          CHANNELS 3 Zrotation Xrotation Yrotation
          End Site
          {
            OFFSET -1.1221 -3.69964 12.103
          }
        }
      }
    }
  }
  JOINT lButtock
  {
    OFFSET 8.77824 4.35084 1.2192
    CHANNELS 3 Zrotation Xrotation Yrotation
    JOINT lThigh
    {
      OFFSET 0 -1.70687 -2.19456
      CHANNELS 3 Zrotation Xrotation Yrotation
      JOINT lShin
      {
        OFFSET 0 -36.8199 0.73152
        CHANNELS 3 Zrotation Xrotation Yrotation
        JOINT lFoot
        {
          OFFSET -0.73152 -45.1104 -5.12064
          CHANNELS 3 Zrotation Xrotation Yrotation
          End Site
          {
            OFFSET 1.1221 -3.69964 12.103
          }
        }
      }
    }
  }
}
MOTION
Frames:	6
Frame Time:	0.00833333
211.993 84.7658 32.982 0.0 0.0 0.0 -0.385196 -0.00168814 -0.0109958 -0.106234 -0.00256713 -0.0184049 -1.35347e-16 7.95139e-16 1.2424e-16 -3.91357e-16 9.54166e-15 3.80486e-16 -0.0 0.0 0.0 -0.0 0.0 0.0 4.83456e-17 -4.46489e-18 1.98785e-16 -2.41686e-17 -2.67117e-16 2.18663e-15 -2.95195e-14 3.97569e-15 4.77083e-14 -3.13968e-13 -2.35808e-14 2.25819e-13 -7.49244e-13 -3.97476e-14 6.17028e-13 -1.30562e-12 -6.67917e-14 1.06151e-12 -7.43455e-13 -3.73715e-14 6.10667e-13 7.73091 5.47488 0.417314 -7.50313e-13 -3.96575e-14 6.20208e-13 2.90554 0.965183 0.102902 -7.37684e-13 -3.95581e-14 6.17028e-13 10.2786 0.731801 0.0259123 -7.55382e-13 -3.81667e-14 6.23389e-13 2.22167 -0.733487 -0.20892 -1.47743e-16 -4.27076e-18 -9.93923e-17 -3.15726e-15 -2.67117e-16 5.96354e-16 -2.55438e-14 -1.0138e-14 -3.18055e-15 -3.20932e-13 -5.81445e-15 2.8943e-13 -7.50559e-13 -3.37538e-14 6.17028e-13 -1.28693e-12 -5.40694e-14 1.05833e-12 -7.56972e-13 -3.22031e-14 6.23389e-13 -7.73091 5.47488 -0.417314 -7.49667e-13 -3.37934e-14 6.10667e-13 -2.90554 0.965183 -0.102902 -7.57432e-13 -3.3197e-14 6.14642e-13 -10.2786 0.731801 -0.0259123 -7.43057e-13 -3.18055e-14 6.07486e-13 -2.22167 -0.733487 0.20892 -2.03217e-16 0.0 -3.88251e-19 0.221644 -2.58356 -0.0280808 -0.00748954 -0.87263 -0.0651397 -0.513105 3.45577 0.129346 2.03217e-16 0.0 3.88251e-19 -0.807781 -4.07084 0.0653915 0.00325579 1.82139 0.0244323 0.517717 2.24911 -0.105181
208.199 83.3716 26.1199 -132.337 -84.6343 141.352 31.6269 24.6323 -3.41707 16.9068 -40.445 23.165 3.54901 14.0195 7.23964 -42.2893 -14.1491 7.02531 -0.0 0.0 0.0 -0.0 0.0 0.0 -5.59194e-14 7.66973e-13 5.54462e-15 -37.5365 -7.91616 20.2445 -6.11255 -3.29751 8.91603 0.163387 -8.98881 -1.20791 7.91651e-10 -1.7137e-10 5.35236e-10 1.35903e-09 -3.18571e-10 9.44911e-10 7.91656e-10 -1.71367e-10 5.35224e-10 7.73091 5.47488 0.417314 7.9165e-10 -1.7137e-10 5.35235e-10 2.90554 0.965183 0.102902 7.9166e-10 -1.7137e-10 5.35234e-10 10.2786 0.731801 0.0259123 7.91644e-10 -1.71368e-10 5.3524e-10 2.22167 -0.733487 -0.20892 -5.60971e-14 7.66974e-13 5.27245e-15 34.853 -4.49197 -20.1782 6.97191 -4.01073 -9.82164 -0.0805666 -6.30531 0.866912 4.44365e-10 6.79921e-10 -2.40285e-10 7.65148e-10 1.1814e-09 -4.08421e-10 4.44359e-10 6.79922e-10 -2.40282e-10 -7.73091 5.47488 -0.417314 4.44366e-10 6.79921e-10 -2.4029e-10 -2.90554 0.965183 -0.102902 4.44359e-10 6.79921e-10 -2.40287e-10 -10.2786 0.731801 -0.0259123 4.44373e-10 6.79922e-10 -2.40295e-10 -2.22167 -0.733487 0.20892 -2.03217e-16 0.0 -3.88251e-19 1.50986 -6.41648 0.975862 -0.0362226 3.78809 -0.0645341 -0.630715 1.39228 -2.67753 2.03217e-16 0.0 3.88251e-19 1.12927 -7.12023 -0.633069 -0.024412 5.15925 -0.114579 0.628429 0.218005 2.54075
208.203 83.3653 26.1274 -132.189 -84.6713 141.222 71.9473 50.5527 -11.3075 89.1548 -56.5164 86.7739 3.03214 28.2884 16.6909 -82.3431 -28.7081 16.3884 -0.0 0.0 0.0 -0.0 0.0 0.0 -1.17528e-13 1.64037e-12 1.04952e-14 -71.5312 -13.2936 43.2202 -11.4936 -6.53684 18.467 -0.0965421 -18.4986 -2.59075 1.6424e-09 -3.75822e-10 1.14299e-09 2.81883e-09 -6.96228e-10 2.01675e-09 1.6424e-09 -3.75818e-10 1.14297e-09 7.73091 5.47488 0.417314 1.6424e-09 -3.75823e-10 1.14299e-09 2.90554 0.965183 0.102902 1.6424e-09 -3.75823e-10 1.14299e-09 10.2786 0.731801 0.0259123 1.64239e-09 -3.75821e-10 1.14299e-09 2.22167 -0.733487 -0.20892 -1.17686e-13 1.64037e-12 1.02498e-14 68.5457 -7.63475 -42.4372 12.8953 -7.88545 -20.3956 0.0468188 -12.9847 1.82158 9.55321e-10 1.39946e-09 -5.23587e-10 1.64549e-09 2.43193e-09 -8.90268e-10 9.55316e-10 1.39946e-09 -5.23589e-10 -7.73091 5.47488 -0.417314 9.55322e-10 1.39946e-09 -5.23591e-10 -2.90554 0.965183 -0.102902 9.55316e-10 1.39946e-09 -5.2359e-10 -10.2786 0.731801 -0.0259123 9.5533e-10 1.39946e-09 -5.23597e-10 -2.22167 -0.733487 0.20892 -2.03217e-16 0.0 -3.88251e-19 3.021 -10.4564 2.06272 -0.066917 8.70657 -0.0657416 -0.973467 -0.777722 -5.64114 2.03217e-16 0.0 3.88251e-19 3.09525 -10.3369 -1.38453 -0.036102 8.68222 -0.264727 0.949501 -1.9166 5.34374
208.205 83.3591 26.1374 -132.52 -84.7006 141.565 120.793 71.571 -30.7268 139.549 -28.5943 115.698 -2.22764 38.9779 27.5439 -114.155 -39.5056 26.9032 -0.0 0.0 0.0 -0.0 0.0 0.0 -1.67855e-13 2.30093e-12 1.62363e-14 -99.0529 -12.2844 62.5577 -15.3522 -8.936 27.0581 -0.763308 -26.9154 -4.01471 2.37645e-09 -5.1403e-10 1.60447e-09 4.07971e-09 -9.55579e-10 2.83261e-09 2.37646e-09 -5.14025e-10 1.60445e-09 7.73091 5.47488 0.417314 2.37645e-09 -5.1403e-10 1.60446e-09 2.90554 0.965183 0.102902 2.37645e-09 -5.14031e-10 1.60447e-09 10.2786 0.731801 0.0259123 2.37644e-09 -5.14028e-10 1.60447e-09 2.22167 -0.733487 -0.20892 -1.67996e-13 2.30093e-12 1.60161e-14 96.9686 -7.04624 -61.1154 16.9345 -10.6192 -29.956 0.358233 -18.8981 2.73239 1.3346e-09 2.03983e-09 -7.22088e-10 2.29802e-09 3.5443e-09 -1.22738e-09 1.33459e-09 2.03983e-09 -7.22093e-10 -7.73091 5.47488 -0.417314 1.3346e-09 2.03983e-09 -7.2209e-10 -2.90554 0.965183 -0.102902 1.33459e-09 2.03983e-09 -7.22091e-10 -10.2786 0.731801 -0.0259123 1.33461e-09 2.03983e-09 -7.22099e-10 -2.22167 -0.733487 0.20892 -2.03217e-16 0.0 -3.88251e-19 4.5002 -14.0658 3.05709 -0.0938117 13.1095 -0.0645985 -1.4707 -2.70161 -8.29772 2.03217e-16 0.0 3.88251e-19 4.77482 -13.212 -2.06982 -0.0302397 11.8347 -0.399679 1.41169 -3.80766 7.84984
208.207 83.3433 26.1481 -132.729 -84.7371 141.788 -178.029 83.0898 -74.4104 163.68 -4.31369 100.838 -8.0544 44.2588 35.3326 -137.178 -44.5908 33.2961 -0.0 0.0 0.0 -0.0 0.0 0.0 -1.89978e-13 2.42937e-12 2.39536e-14 -119.094 -8.99406 71.981 -17.5167 -10.1764 32.9449 -1.51408 -32.6488 -5.16639 2.81877e-09 -4.86624e-10 1.70027e-09 4.84327e-09 -9.19164e-10 3.00854e-09 2.81878e-09 -4.86619e-10 1.70024e-09 7.73091 5.47488 0.417314 2.81877e-09 -4.86625e-10 1.70026e-09 2.90554 0.965183 0.102902 2.81877e-09 -4.86625e-10 1.70026e-09 10.2786 0.731801 0.0259123 2.81876e-09 -4.86622e-10 1.70027e-09 2.22167 -0.733487 -0.20892 -1.9011e-13 2.42937e-12 2.37548e-14 117.271 -5.0141 -70.5821 19.0829 -11.9003 -36.4974 0.690447 -22.914 3.40579 1.38467e-09 2.48229e-09 -7.08586e-10 2.381e-09 4.31123e-09 -1.20265e-09 1.38466e-09 2.48229e-09 -7.08593e-10 -7.73091 5.47488 -0.417314 1.38467e-09 2.48229e-09 -7.08586e-10 -2.90554 0.965183 -0.102902 1.38466e-09 2.48229e-09 -7.08589e-10 -10.2786 0.731801 -0.0259123 1.38468e-09 2.48229e-09 -7.08596e-10 -2.22167 -0.733487 0.20892 -2.03217e-16 0.0 -3.88251e-19 5.60252 -16.6145 3.75473 -0.11232 16.2236 -0.0564431 -1.93103 -4.04771 -10.1717 2.03217e-16 0.0 3.88251e-19 5.90115 -15.2391 -2.55564 -0.0162678 14.0613 -0.490134 1.83122 -5.1284 9.59194
208.211 83.3249 26.1586 -132.63 -84.7862 141.713 26.0563 85.9527 80.1574 178.565 3.41509 61.7966 -8.25106 44.5242 33.6916 -155.066 -43.7753 28.444 -0.0 0.0 0.0 -0.0 0.0 0.0 -1.68888e-13 1.54283e-12 4.28959e-14 -128.829 -7.79657 68.1015 -18.1065 -10.3989 34.8333 -1.85123 -34.6225 -5.6144 2.91598e-09 -1.42051e-10 1.15797e-09 5.02275e-09 -3.21747e-10 2.07164e-09 2.91598e-09 -1.42046e-10 1.15795e-09 7.73091 5.47488 0.417314 2.91598e-09 -1.42052e-10 1.15797e-09 2.90554 0.965183 0.102902 2.91598e-09 -1.42051e-10 1.15797e-09 10.2786 0.731801 0.0259123 2.91597e-09 -1.42049e-10 1.15797e-09 2.22167 -0.733487 -0.20892 -1.69025e-13 1.54283e-12 4.27154e-14 126.373 -3.74816 -66.6338 19.6188 -12.0466 -38.5252 0.831433 -24.2543 3.6449 8.46372e-10 2.70769e-09 -3.22207e-10 1.44494e-09 4.69737e-09 -5.41465e-10 8.46369e-10 2.70769e-09 -3.22211e-10 -7.73091 5.47488 -0.417314 8.46374e-10 2.70769e-09 -3.22204e-10 -2.90554 0.965183 -0.102902 8.4637e-10 2.70769e-09 -3.22207e-10 -10.2786 0.731801 -0.0259123 8.46381e-10 2.70769e-09 -3.22214e-10 -2.22167 -0.733487 0.20892 -2.03217e-16 0.0 -3.88251e-19 6.03957 -17.6909 3.99165 -0.119343 17.5299 -0.0357138 -2.15183 -4.61092 -10.9318 2.03217e-16 0.0 3.88251e-19 6.33052 -16.0882 -2.7364 -0.00709627 14.9969 -0.511601 2.01533 -5.68144 10.2451
